<svg width="46" height="52" viewBox="0 0 46 52" xmlns="http://www.w3.org/2000/svg" role="img" aria-labelledby="oc-logo-title">
  <title id="oc-logo-title">OC.Documenty.pl</title>
  <rect x="0" y="0" width="46" height="52" rx="10" fill="#f31324"/>

  <!-- FileText icon (lucide), 27x31 at (7,7), white stroke -->
  <g transform="translate(7,7) scale(1.125,1.2917)" fill="none" stroke="#ffffff" stroke-width="1.6" stroke-linecap="round" stroke-linejoin="round">
    <path d="M15 2H6a2 2 0 0 0-2 2v16a2 2 0 0 0 2 2h12a2 2 0 0 0 2-2V7Z"/>
    <path d="M14 2v4a2 2 0 0 0 2 2h4"/>
    <path d="M10 9H8"/>
    <path d="M16 13H8"/>
    <path d="M16 17H8"/>
  </g>

  <!-- ShieldCheck icon (lucide), 24x24 at (20,26), red fill + white stroke -->
  <g transform="translate(20,26)" fill="#d90012" stroke="#ffffff" stroke-width="2.1" stroke-linecap="round" stroke-linejoin="round">
    <path d="M20 13c0 5-3.5 7.5-7.66 8.95a1 1 0 0 1-.67-.01C7.5 20.5 4 18 4 13V6a1 1 0 0 1 1-1c2 0 4.5-1.2 6.24-2.72a1.17 1.17 0 0 1 1.52 0C14.51 3.81 17 5 19 5a1 1 0 0 1 1 1z"/>
    <path d="m9 12 2 2 4-4" fill="none"/>
  </g>
</svg>
