<svg width="92" height="104" viewBox="0 0 92 104" xmlns="http://www.w3.org/2000/svg" role="img" aria-labelledby="oc-logo-title">
  <title id="oc-logo-title">OC.Documenty.pl</title>
  <rect x="0" y="0" width="92" height="104" rx="20" fill="#e30613"/>
  <g transform="translate(14,16)" fill="none" stroke="#ffffff" stroke-width="4" stroke-linecap="round" stroke-linejoin="round">
    <path d="M4 4 L30 4 L40 14 L40 68 C40 70.2 38.2 72 36 72 L4 72 C1.8 72 0 70.2 0 68 L0 8 C0 5.8 1.8 4 4 4 Z"/>
    <path d="M30 4 L30 14 L40 14"/>
    <path d="M8 30 H24"/>
    <path d="M8 42 H32"/>
    <path d="M8 54 H32"/>
  </g>
  <g transform="translate(38,44)">
    <path d="M18 0 L34 6 V20 C34 32 27 40 18 44 C9 40 2 32 2 20 V6 Z" fill="#ffffff" stroke="#e30613" stroke-width="2.5"/>
    <path d="M10 21 L16 27 L27 14" fill="none" stroke="#e30613" stroke-width="4" stroke-linecap="round" stroke-linejoin="round"/>
  </g>
</svg>
